<svg xmlns="http://www.w3.org/2000/svg" clip-rule="evenodd" fill-rule="evenodd" height="512" viewBox="0 0 43.3492 43.3492" width="512"><g><g><path d="m4.1235 42.5888h35.1026v-1.0604c0-.5852-.4764-1.0604-1.0606-1.0604h-32.9816c-.5842 0-1.0606.4752-1.0606 1.0604zm35.4826.7605h-35.8629c-.2099 0-.3803-.1703-.3803-.3803l.0002-1.4406c0-1.004.8167-1.8208 1.8206-1.8208h32.9819c1.0041 0 1.8207.8168 1.8207 1.8208l.0001 1.4406c0 .21-.1704.3803-.3803.3803z"></path><path d="m37.4893 40.468c-.2099 0-.3803-.1703-.3803-.3802l.0002-1.8268c0-.797-.6487-1.4455-1.4457-1.4455h-27.9777c-.797 0-1.4456.6485-1.4456 1.4455l.0001 1.8268c0 .2099-.1704.3802-.3803.3802-.2108 0-.3802-.1703-.3802-.3802l.0001-1.8268c0-1.2168.989-2.2059 2.2059-2.2059h27.9778c1.2168 0 2.2058.9891 2.2058 2.2059l.0002 1.8268c0 .2099-.1705.3802-.3803.3802z"></path><path d="m34.8082 36.8155c-.2101 0-.3804-.1703-.3804-.3802l.0001-17.5934c0-7.0318-5.721-12.7537-12.7528-12.7537-7.0326 0-12.7536 5.7219-12.7536 12.7537l.0001 17.5933c0 .21-.1705.3803-.3804.3803-.2109 0-.3802-.1703-.3802-.3802v-17.5934c0-7.4516 6.0615-13.5141 13.5131-13.5141 7.4526 0 13.5141 6.0625 13.5141 13.5141v17.5933c0 .21-.1703.3803-.38.3803z"></path><path d="m21.6753 36.8155c-.211 0-.3804-.1703-.3804-.3802l.0001-14.1221c0-.2099.1692-.3802.3801-.3802.2101 0 .3802.1703.3802.3802l.0001 14.122c0 .21-.1704.3803-.3801.3803z"></path><path d="m18.3268 18.6053v7.0021c1.6928-.2773 2.9681-1.7446 2.9681-3.5011.0001-1.7565-1.2753-3.2238-2.9681-3.501zm-.3803 7.8041c-.0972 0-.1913-.0377-.2615-.105-.0751-.0713-.1189-.1713-.1189-.2752l.0001-7.8467c0-.104.0435-.204.1188-.2753.0752-.0723.1752-.1079.2811-.1039 2.2923.1148 4.0892 2.0049 4.0892 4.303.0001 2.2971-1.797 4.1872-4.0892 4.3031-.0067 0-.0128 0-.0196 0z"></path><path d="m17.9465 22.4865h-1.2505c-.2101 0-.3804-.1703-.3804-.3802.0001-.2099.1703-.3802.3802-.3802h1.2507c.2107 0 .3801.1703.3801.3802.0002.2099-.1694.3802-.3801.3802z"></path><path d="m25.0227 18.6053c-1.6931.2772-2.9674 1.7445-2.9674 3.501.0001 1.7565 1.2743 3.2238 2.9674 3.5011zm.3803 7.8041c-.0069 0-.013 0-.0199 0-2.2921-.1159-4.0882-2.006-4.0882-4.3031.0001-2.2981 1.7961-4.1882 4.0882-4.303.1041-.004.2059.0317.2812.1039.0753.0713.1188.1713.1188.2753l.0002 7.8467c0 .1039-.0438.2039-.119.2752-.0701.0673-.1644.105-.2613.105z"></path><path d="m26.6535 22.4865h-1.2505c-.211 0-.3803-.1703-.3803-.3802s.1693-.3802.3802-.3802h1.2506c.21 0 .3801.1703.3801.3802.0001.2099-.1703.3802-.3801.3802z"></path><path d="m13.4433 14.8963c-.0642 0-.1297-.0169-.1901-.0515-.1811-.105-.2436-.3376-.1386-.5188 1.3071-2.2634 3.4159-3.8823 5.9407-4.5585.2031-.0555.4109.0653.4653.2683.0546.203-.0653.4109-.2683.4654-2.3286.6237-4.2743 2.1168-5.4793 4.205-.0702.1218-.198.1901-.3297.1901z"></path><path d="m21.6753 3.9535c-.2121 0-.3844-.1713-.3844-.3831l.0001-3.1872c0-.2119.1722-.3832.3841-.3832.2109 0 .3832.1713.3832.3832l.0002 3.1871c0 .2119-.1725.3832-.3832.3832z"></path><path d="m30.4248 6.2981c-.0644 0-.1307-.0168-.1911-.0515-.1831-.1059-.2465-.3406-.1406-.5238l1.5931-2.7594c.106-.1832.3406-.2465.5238-.1406.1842.1059.2465.3406.1405.5238l-1.5931 2.7604c-.0712.1228-.1999.1911-.3326.1911z"></path><path d="m36.8319 12.7042c-.1326 0-.2615-.0683-.3328-.1921-.1059-.1832-.0425-.4178.1406-.5238l2.7597-1.5931c.1831-.1059.4176-.0426.5235.1406.106.1832.0436.4178-.1405.5238l-2.7594 1.5931c-.0604.0346-.1259.0515-.1911.0515z"></path><path d="m42.3627 21.4548h-3.1861c-.2119 0-.3844-.1713-.3844-.3832.0001-.2119.1723-.3841.3842-.3841h3.1863c.2119 0 .3831.1722.3831.3841.0001.2119-.1713.3832-.3831.3832z"></path><path d="m4.1729 21.4548h-3.1861c-.2119 0-.3833-.1713-.3833-.3832.0001-.2119.1713-.3841.3832-.3841h3.1862c.2118 0 .3841.1722.3841.3841.0002.2119-.1723.3832-.3841.3832z"></path><path d="m6.5176 12.7042c-.0655 0-.1309-.0169-.1913-.0515l-2.7593-1.5931c-.1843-.106-.2467-.3406-.1407-.5238.1061-.1832.3406-.2465.5237-.1406l2.7596 1.5931c.1832.106.2464.3406.1405.5238-.0712.1238-.2.1921-.3325.1921z"></path><path d="m12.9247 6.2981c-.1328 0-.2616-.0683-.3329-.1911l-1.593-2.7604c-.1058-.1832-.0437-.4178.1405-.5238.1834-.1059.4178-.0426.5238.1406l1.5931 2.7594c.106.1832.0426.4179-.1407.5238-.0603.0347-.1257.0515-.1908.0515z"></path></g></g></svg>