<svg xmlns="http://www.w3.org/2000/svg" clip-rule="evenodd" fill-rule="evenodd" height="512" viewBox="0 0 43.3492 43.3492" width="512"><g><g><path d="m15.4303 38.6595c-.205 0-.3696-.1655-.3696-.3696v-33.119l-2.7607-3.5845-2.7541 3.5836v33.1199c0 .204-.1646.3696-.3696.3696-.204 0-.3695-.1655-.3695-.3696l.0001-33.2451c0-.0818.0268-.1607.0769-.2251l3.1236-4.0648c.0693-.0914.178-.1443.2925-.1443.1146 0 .2233.053.2925.1444l3.1304 4.0646c.05.0645.0769.1435.0769.2253l.0002 33.245c0 .204-.1657.3696-.3696.3696z"></path><path d="m9.1763 38.6595c-.0942 0-.1886-.0356-.2607-.1078-.1444-.1444-.1444-.3791 0-.5225l6.2558-6.2559c.1444-.1443.3782-.1443.5225 0 .1443.1444.1443.3782 0 .5226l-6.2558 6.2558c-.0721.0721-.1665.1078-.2618.1078z"></path><path d="m15.4323 38.6595c-.0944 0-.1888-.0356-.2609-.1078l-6.2558-6.2559c-.1444-.1443-.1444-.3781 0-.5225.1444-.1443.3781-.1443.5225 0l6.2559 6.2558c.1442.1434.1442.3782-.0001.5226-.0722.0721-.1675.1078-.2616.1078z"></path><path d="m15.4323 32.4036c-.0944 0-.1888-.0356-.2609-.1077l-6.2558-6.2559c-.1444-.1444-.1444-.3781 0-.5225.1444-.1443.3781-.1443.5225 0l6.2559 6.2558c.1442.1444.1442.3782-.0001.5226-.0722.0721-.1675.1077-.2616.1077z"></path><path d="m9.1763 32.4036c-.0942 0-.1886-.0356-.2607-.1077-.1444-.1444-.1444-.3782 0-.5226l6.2558-6.2558c.1444-.1443.3782-.1443.5225 0s.1443.3782 0 .5225l-6.2558 6.2558c-.0721.0722-.1665.1078-.2618.1078z"></path><path d="m9.1763 26.1478c-.0942 0-.1886-.0356-.2607-.1078-.1444-.1444-.1444-.3781 0-.5225l6.2558-6.2559c.1444-.1443.3782-.1443.5225.0001.1443.1443.1443.3782 0 .5225l-6.2558 6.2558c-.0721.0722-.1665.1078-.2618.1078z"></path><path d="m15.4323 26.1478c-.0944 0-.1888-.0356-.2609-.1078l-6.2558-6.2558c-.1444-.1444-.1444-.3782 0-.5225.1444-.1444.3781-.1444.5225 0l6.2559 6.2558c.1442.1443.1442.3782-.0001.5225-.0722.0722-.1675.1078-.2616.1078z"></path><path d="m15.4323 19.892c-.0944 0-.1888-.0356-.2609-.1078l-6.2558-6.2559c-.1444-.1443-.1444-.3781 0-.5224.1444-.1444.3781-.1444.5225 0l6.2559 6.2557c.1442.1444.1442.3783-.0001.5226-.0722.0722-.1675.1078-.2616.1078z"></path><path d="m9.1763 19.893c-.0942 0-.1886-.0366-.2607-.1088-.1444-.1444-.1444-.3782 0-.5225l6.2558-6.2559c.1444-.1443.3782-.1443.5225.0001.1443.1443.1443.3781 0 .5225l-6.2558 6.2558c-.0721.0722-.1665.1088-.2618.1088z"></path><path d="m42.4226 13.8382h-33.2463c-.204 0-.3695-.1645-.3695-.3695.0001-.204.1655-.3695.3695-.3695h32.8766v-5.5139h-32.8766c-.204 0-.3695-.1655-.3695-.3695.0001-.2041.1655-.3695.3695-.3695h33.2463c.2039 0 .3693.1655.3693.3695v6.2529c0 .205-.1655.3695-.3693.3695z"></path><path d="m15.4323 13.8411c-.0944 0-.1888-.0356-.2609-.1077l-6.2558-6.2559c-.1444-.1443-.1444-.3782 0-.5225.1444-.1444.3781-.1443.5225 0l6.2559 6.2558c.1442.1443.1442.3782-.0001.5226-.0722.0721-.1675.1077-.2616.1077z"></path><path d="m9.1763 13.8411c-.0942 0-.1886-.0356-.2607-.1077-.1444-.1444-.1444-.3782 0-.5226l6.2558-6.2558c.1444-.1444.3782-.1443.5225 0s.1443.3782 0 .5225l-6.2558 6.2558c-.0721.0722-.1665.1078-.2618.1078z"></path><path d="m15.4323 13.8411c-.0944 0-.1888-.0356-.2609-.1077-.1442-.1444-.1444-.3782 0-.5226l6.2559-6.2558c.1434-.1444.3781-.1443.5215 0 .1443.1443.1443.3782 0 .5225l-6.2548 6.2558c-.0723.0722-.1676.1078-.2617.1078z"></path><path d="m21.688 13.8411c-.0942 0-.1896-.0356-.2608-.1077l-6.2558-6.2559c-.1442-.1443-.1444-.3782 0-.5225.1444-.1444.3782-.1443.5225 0l6.255 6.2558c.1442.1443.1442.3782-.0001.5226-.0711.0721-.1665.1077-.2608.1077z"></path><path d="m27.9438 13.8411c-.0942 0-.1896-.0356-.2617-.1077l-6.2548-6.2559c-.1444-.1443-.1444-.3782-.0001-.5225.1435-.1444.3782-.1443.5216 0l6.2559 6.2558c.1444.1443.1442.3782-.0001.5226-.072.0721-.1665.1077-.2608.1077z"></path><path d="m21.688 13.8411c-.0942 0-.1896-.0356-.2608-.1077-.1443-.1444-.1443-.3782 0-.5226l6.2551-6.2558c.1441-.1444.3789-.1443.5223 0 .1445.1443.1443.3782 0 .5225l-6.2557 6.2558c-.0712.0722-.1666.1078-.2609.1078z"></path><path d="m27.9438 13.8411c-.0942 0-.1896-.0356-.2617-.1077-.1443-.1444-.1444-.3782 0-.5226l6.2559-6.2558c.1444-.1444.3781-.1443.5224 0 .1444.1443.1443.3782 0 .5225l-6.2557 6.2558c-.0721.0722-.1666.1078-.2609.1078z"></path><path d="m34.1998 13.8411c-.0953 0-.1897-.0356-.2619-.1077l-6.2556-6.2559c-.1445-.1443-.1446-.3782-.0002-.5225.1443-.1444.3791-.1443.5225 0l6.2558 6.2558c.1444.1443.1443.3782 0 .5226-.0721.0721-.1665.1077-.2606.1077z"></path><path d="m40.4547 13.8411c-.0945 0-.1888-.0356-.261-.1077l-6.2557-6.2559c-.1444-.1443-.1445-.3782-.0001-.5225.1445-.1444.3782-.1443.5225 0l6.256 6.2558c.1442.1443.1442.3782-.0002.5226-.0721.0721-.1665.1077-.2615.1077z"></path><path d="m34.1998 13.8411c-.0953 0-.1897-.0356-.2619-.1077-.1443-.1444-.1444-.3782 0-.5226l6.2558-6.2558c.1445-.1444.3782-.1443.5225 0 .1444.1443.1444.3782 0 .5225l-6.2558 6.2558c-.0721.0722-.1665.1078-.2606.1078z"></path><path d="m40.4555 13.8411c-.0953 0-.1896-.0356-.2618-.1077-.1441-.1444-.1443-.3782 0-.5226l1.9671-1.9669c.1442-.1444.378-.1443.5223 0 .1446.1434.1444.3782 0 .5216l-1.9667 1.9678c-.0723.0722-.1667.1078-.2609.1078z"></path><path d="m42.4226 9.5522c-.0953 0-.1898-.0356-.262-.1078l-1.9669-1.9669c-.1441-.1443-.1443-.3782 0-.5225.1445-.1444.3782-.1443.5225 0l1.967 1.9669c.1445.1443.1443.3782-.0001.5225-.072.0722-.1664.1078-.2605.1078z"></path><path d="m9.1763 13.8382h-8.8067c-.204 0-.3696-.1645-.3696-.3695v-3.1265c0-1.9275 1.5685-3.4959 3.4969-3.4959h5.6794c.205 0 .3696.1655.3696.3695s-.1646.3695-.3696.3695h-5.6794c-1.5203 0-2.7579 1.2375-2.7579 2.757l.0002 2.7569h8.4371c.205 0 .3696.1655.3696.3695 0 .205-.1646.3695-.3696.3695z"></path><path d="m40.4547 19.33c-.2042 0-.3697-.1655-.3697-.3695v-5.4399c0-.2049.1655-.3694.3695-.3694.205-.0001.3695.1645.3695.3695v5.4398c0 .204-.1646.3695-.3693.3695z"></path><path d="m40.4555 7.5853c-.0268 0-.054-.0029-.0809-.0087l-27.9995-6.2019-9.1534 6.148c-.1693.1146-.3993.0684-.5129-.101-.1143-.1694-.0693-.3984.1001-.5119l9.2852-6.2366c.0837-.0558.1875-.0751.2857-.0539l28.1547 6.2356c.2001.0443.3251.2416.2808.4407-.0374.1723-.1905.2897-.3598.2897z"></path><path d="m39.7222 22.1841h1.4656c.3137-.4715.5927-.9141.9112-1.4318-.2779-.4466-.5764-.919-.9113-1.4204h-1.4655c-.3339.5013-.6332.9739-.9113 1.4204.3176.5157.5956.9584.9113 1.4318zm1.6639.7429h-1.862c-.1232 0-.2388-.0615-.3081-.1636-.4099-.6081-.7467-1.146-1.1585-1.8187-.0742-.1193-.0732-.2704.0009-.3907.3465-.5562.7217-1.1537 1.1576-1.8014.0695-.1029.1848-.1636.3079-.1636h1.8622c.1232 0 .2385.0607.3078.1636.437.6476.8112 1.2452 1.1576 1.8024.0742.1193.0751.2704.001.3897-.4126.6746-.7506 1.2135-1.1586 1.8187-.0692.102-.1848.1636-.3078.1636z"></path><path d="m40.4547 25.2182c-.2042 0-.3697-.1655-.3697-.3695v-2.2931c0-.204.1655-.3695.3695-.3695.205 0 .3695.1655.3695.3695v2.2931c0 .204-.1646.3696-.3693.3695z"></path><path d="m39.83 27.5518c-.2791 0-.5591-.0722-.8103-.2175-.3751-.2165-.6428-.5658-.7554-.9834-.1114-.4177-.0539-.8546.1626-1.2298.2157-.3744.5659-.6428.9835-.7545.4176-.1116.8545-.0548 1.2288.1617.1772.102.2377.3281.1357.5052-.1018.1761-.3281.2367-.5052.1347-.2028-.1174-.4407-.1491-.6678-.0876-.2279.0607-.4176.207-.535.41-.1183.204-.1492.4417-.0886.6687.0616.2281.2069.4177.4109.5351.2821.1635.6293.1578.9065-.0154.1732-.1078.4013-.0549.5091.1184.1078.1731.0548.4012-.1184.509-.2616.1636-.5591.2454-.8564.2454z"></path><path d="m36.9326 31.1979c-.0827 0-.1656-.0279-.2349-.0847-.1568-.1299-.179-.3627-.0491-.5206l3.0168-3.6519c.0704-.0846.1742-.1337.2839-.1337h.0009c.1098 0 .2137.0491.2839.1338l3.0294 3.6518c.131.1569.1086.3897-.0482.5197-.1569.1308-.3897.1087-.5206-.0482l-2.7443-3.3083-2.732 3.3074c-.0732.0885-.1791.1347-.2858.1347z"></path><path d="m37.303 35.4868h5.307v-4.2889h-5.307zm5.6766.739h-6.0461c-.204 0-.3695-.1655-.3695-.3695l.0001-5.028c0-.204.1654-.3694.3694-.3694h6.0461c.204 0 .3695.1655.3695.3695l.0001 5.0279c0 .204-.1657.3696-.3696.3695z"></path><path d="m5.9912 41.9976h12.6243v-2.1333c0-.664-.5399-1.2039-1.203-1.2039h-10.2184c-.6629 0-1.203.5399-1.203 1.2039zm12.9947.741h-13.3652c-.2048 0-.3705-.1655-.3705-.3705l.0001-2.5038c0-1.0721.8717-1.9448 1.9437-1.9448h10.2187c1.072 0 1.9437.8728 1.9437 1.9448v2.5038c0 .205-.1656.3705-.3705.3705z"></path></g></g></svg>