<svg xmlns="http://www.w3.org/2000/svg" height="512" viewBox="0 0 512 512" width="512"><g><g clip-rule="evenodd" fill-rule="evenodd"><path d="m326.3 402c-1 0-2.1-.3-2.9-1.1-1.9-1.6-2.1-4.4-.5-6.3 56.8-67.5 88.6-158.6 79.2-226.8-5.5-40-24-71-55-92.1 0 0-.1-.1-.1-.1-50.9-37.2-130.7-37.2-181.6 0 0 0-.1.1-.1.1-31 21.1-49.5 52.1-55 92.1-9.4 68.2 22.4 159.3 79.2 226.8 1.6 1.9 1.4 4.7-.5 6.3s-4.7 1.3-6.3-.5c-27.4-32.5-50.4-72.5-65-112.7-15.6-43.1-21.2-85-16.3-121.2 5.9-42.6 25.6-75.7 58.7-98.3 53.9-39.3 138.2-39.3 192.1 0 33.1 22.6 52.9 55.6 58.7 98.3 5 36.2-.6 78.1-16.3 121.2-14.5 40.1-37.6 80.1-65 112.7-.7 1.1-2 1.6-3.3 1.6z"></path><path d="m112.3 259.7c-.5 0-1-.1-1.5-.2-30.5-10.5-43.1-56.1-37.7-94.1 2.4-16.7 8-31.1 16.3-41.7 9.6-12.3 22.5-19.1 37.3-19.8 2.5-.1 4.6 1.8 4.7 4.3s-1.8 4.6-4.3 4.7c-35 1.7-43.5 41.7-45.2 53.9-4.8 33.6 6 75.4 31.7 84.3 2.3.8 3.6 3.4 2.8 5.7-.5 1.7-2.2 2.9-4.1 2.9z"></path><path d="m400.1 259.7c-1.9 0-3.6-1.2-4.2-3-.8-2.3.4-4.9 2.8-5.7 25.8-8.9 36.6-50.8 31.7-84.5-1.8-12.2-10.2-52.1-45.2-53.8-2.5-.1-4.4-2.2-4.3-4.7s2.2-4.4 4.7-4.3c28.3 1.3 48.3 24.3 53.7 61.5 5.5 38-7.1 83.7-37.7 94.2-.5.2-1 .3-1.5.3z"></path><path d="m256.2 332.8c-36.2 0-65.7 29.5-65.7 65.6 0 36.2 29.4 65.6 65.7 65.6 36.2 0 65.6-29.4 65.6-65.6.1-36.1-29.4-65.6-65.6-65.6zm0 140.3c-41.2 0-74.6-33.5-74.6-74.6 0-41.2 33.5-74.6 74.6-74.6s74.6 33.5 74.6 74.6-33.5 74.6-74.6 74.6z"></path><path d="m167.5 136.1c-12.9 0-21.9 15-26.1 29.1-6.1 20.9-4.2 47.5 9.8 56 14.7 8.9 40.3-3 72.2-33.6 11.9-10.8 16.5-20.3 13.2-28-6.9-16.4-46.3-24.9-69.1-23.5zm-5.4 97c-6.5 0-11.6-1.7-15.5-4.2-18.5-11.3-20.9-41.8-13.7-66.2 6.6-22.3 20-35.8 35.2-35.6 21.5-1.2 67.3 6.1 76.9 29 4.9 11.6-.3 24.4-15.3 38.1-31.3 30-52.9 38.9-67.6 38.9z"></path><path d="m339.1 136c-23 0-57 8.6-63.3 23.7-3.2 7.7 1.1 17.1 13.1 28 0 0 .1.1.1.1 31.9 30.6 57.6 42.5 72.2 33.6 14-8.5 16-35.2 9.8-56-4.2-14.3-13.4-29.5-26.5-29.1-1.8-.2-3.6-.3-5.4-.3zm11.2 97.1c-14.7 0-36.3-8.9-67.5-38.9-15-13.6-20.2-26.4-15.3-38.1 9.8-23.1 55.7-30.3 77.4-29 15 0 28.2 13.6 34.7 35.6 7.2 24.4 4.8 54.9-13.8 66.2-4 2.5-9.1 4.2-15.5 4.2z"></path><path d="m256.2 353.7c-24.7 0-44.8 20.1-44.8 44.8s20.1 44.8 44.8 44.8 44.8-20.1 44.8-44.8-20.1-44.8-44.8-44.8zm0 98.5c-29.6 0-53.8-24.1-53.8-53.7s24.1-53.7 53.7-53.7 53.7 24.1 53.7 53.7c.1 29.6-24 53.7-53.6 53.7z"></path><path d="m256.2 368.9c-2.5 0-4.5-2-4.5-4.5s2-4.5 4.5-4.5 4.5 2 4.5 4.5v.1c0 2.4-2 4.4-4.5 4.4z"></path><path d="m256.2 436.1c-2.5 0-4.5-2-4.5-4.5s2-4.5 4.5-4.5 4.5 2 4.5 4.5v.1c0 2.4-2 4.4-4.5 4.4z"></path><path d="m280 378.7c-1.1 0-2.3-.4-3.2-1.3-1.8-1.8-1.8-4.6 0-6.4s4.6-1.8 6.4 0 1.8 4.6 0 6.3c-1 1-2.1 1.4-3.2 1.4z"></path><path d="m232.4 426.3c-1.1 0-2.3-.4-3.2-1.3-1.8-1.8-1.8-4.6 0-6.4s4.6-1.8 6.4 0 1.8 4.6 0 6.3c-.9.9-2.1 1.4-3.2 1.4z"></path><path d="m289.9 402.5c-2.5 0-4.6-2-4.6-4.5s2-4.5 4.5-4.5 4.5 2 4.5 4.5-2 4.5-4.4 4.5z"></path><path d="m222.6 402.5c-2.5 0-4.6-2-4.6-4.5s2-4.5 4.5-4.5 4.5 2 4.5 4.5c.1 2.5-1.9 4.5-4.4 4.5z"></path><path d="m280 426.3c-1.1 0-2.3-.4-3.1-1.3-1.8-1.8-1.8-4.6 0-6.3 1.8-1.8 4.6-1.8 6.4 0s1.8 4.6 0 6.4c-1 .7-2.2 1.2-3.3 1.2z"></path><path d="m232.4 378.7c-1.1 0-2.3-.4-3.1-1.3-1.8-1.8-1.8-4.6 0-6.3 1.8-1.8 4.6-1.8 6.3 0 1.8 1.8 1.8 4.6 0 6.4-.9.8-2 1.2-3.2 1.2z"></path><path d="m256.2 388.9c-5.3 0-9.6 4.3-9.6 9.6s4.3 9.6 9.6 9.6 9.6-4.3 9.6-9.6-4.3-9.6-9.6-9.6zm0 28.1c-10.2 0-18.6-8.3-18.6-18.6 0-10.2 8.3-18.6 18.6-18.6 10.2 0 18.5 8.3 18.5 18.6.1 10.3-8.3 18.6-18.5 18.6z"></path><path d="m69 298-49.7 28.7c-5.3 3-7.1 9.8-4 15l50.3 87.2c3 5.2 9.8 7.1 15 4l49.8-28.7zm6.1 145.3c-6.9 0-13.6-3.6-17.3-10l-50.3-87.1c-5.5-9.5-2.2-21.8 7.3-27.3l53.6-31c1-.6 2.3-.8 3.4-.4 1.2.3 2.1 1.1 2.7 2.1l65.8 114c1.2 2.1.5 4.9-1.7 6.1l-53.6 31c-3.1 1.8-6.5 2.6-9.9 2.6z"></path><path d="m54.8 435c-15.3 0-33-12.5-44.5-32.3-13.3-23.1-13.8-48.6-1.2-60.6 1.8-1.7 4.6-1.6 6.3.2s1.6 4.6-.2 6.3c-9.5 9-8.3 30.3 2.8 49.5 11.2 19.2 29 30.9 41.6 27.2 2.4-.7 4.9.7 5.6 3 .7 2.4-.7 4.9-3 5.6-2.4.7-4.9 1.1-7.4 1.1z"></path><path d="m129.1 397.5c-1.6 0-3.1-.8-3.9-2.2-1.2-2.1-.5-4.9 1.6-6.1l10.2-5.9-47.2-81.7-10.2 5.9c-2.2 1.2-4.9.5-6.1-1.6-1.2-2.2-.5-4.9 1.6-6.1l14.1-8.1c2.1-1.2 4.9-.5 6.1 1.6l51.7 89.5c.6 1 .8 2.3.4 3.4-.3 1.1-1.1 2.1-2.1 2.7l-14.1 8.1c-.5.3-1.3.5-2.1.5z"></path><path d="m101.4 317c-1.6 0-3.1-.8-3.9-2.3-1.2-2.2-.5-4.9 1.7-6.1l25.1-14.2c2.2-1.2 4.9-.5 6.1 1.7s.5 4.9-1.7 6.1l-25.1 14.2c-.7.5-1.4.6-2.2.6zm31.9 55.3c-1.6 0-3.1-.8-3.9-2.2-1.2-2.1-.5-4.9 1.6-6.1l22.1-12.7c2.2-1.2 4.9-.5 6.1 1.6s.5 4.9-1.7 6.1l-22.1 12.7c-.5.4-1.3.6-2.1.6z"></path><path d="m381.7 404.1 49.7 28.7c5.3 3 12 1.2 15-4l50.3-87.2c3-5.3 1.2-12-4-15l-49.7-28.6zm55.2 39.2c-3.4 0-6.8-.9-10-2.7l-53.6-31c-2.2-1.2-2.9-4-1.7-6.1l65.8-114c.6-1 1.6-1.8 2.7-2.1 1.2-.3 2.4-.1 3.4.5l53.6 31c9.5 5.5 12.8 17.8 7.3 27.3l-50.3 87.2c-3.6 6.3-10.3 9.9-17.2 9.9z"></path><path d="m457.2 435c-2.5 0-5-.3-7.3-1-2.4-.7-3.7-3.2-3-5.6s3.2-3.7 5.6-3c12.5 3.7 30.3-8 41.4-27.2s12.3-40.5 2.8-49.5c-1.8-1.7-1.9-4.6-.2-6.3 1.7-1.8 4.5-1.9 6.4-.2 6 5.7 9 14.4 9.1 24.5v1c-.1 10.9-3.6 23.2-10.3 35-11.5 19.8-29.2 32.3-44.5 32.3z"></path><path d="m382.9 397.5c-.8 0-1.5-.2-2.2-.6l-14.1-8.1c-1-.6-1.8-1.6-2.1-2.7-.3-1.2-.2-2.4.4-3.4l51.7-89.5c1.2-2.1 4-2.9 6.1-1.6l14.1 8.1c2.2 1.2 2.9 4 1.6 6.1-1.2 2.1-4 2.9-6.1 1.6l-10.2-5.9-47.2 81.7 10.2 5.9c2.1 1.2 2.9 4 1.6 6.1-.8 1.5-2.3 2.3-3.8 2.3z"></path><path d="m410.6 317c-.8 0-1.5-.2-2.2-.6l-24.8-14c-2.2-1.2-2.9-4-1.7-6.1 1.2-2.2 4-2.9 6.1-1.7l24.8 14c2.2 1.2 2.9 4 1.7 6.1-.8 1.5-2.4 2.3-3.9 2.3zm-31.9 55.3c-.8 0-1.5-.2-2.2-.6l-21.8-12.6c-2.2-1.2-2.9-4-1.7-6.1s4-2.9 6.1-1.6l21.8 12.6c2.2 1.2 2.9 4 1.6 6.1-.8 1.4-2.3 2.2-3.8 2.2z"></path></g></g></svg>